{"title":"Super Nani 2014 Hindi DVDScr RIP GOPI SAHI PDR","uid":11343651,"size":722791569,"categoryP":"video","categoryS":"movies","magnet":"?xt=urn:btih:13adce99de79921401f4d1c7954f4607f286c1fb&amp;dn=Super+Nani+2014+Hindi+DVDScr+RIP+GOPI+SAHI+PDR&amp;tr=udp%3A%2F%2Ftracker.openbittorrent.com%3A80&amp;tr=udp%3A%2F%2Fopen.demonii.com%3A1337&amp;tr=udp%3A%2F%2Ftracker.coppersurfer.tk%3A6969&amp;tr=udp%3A%2F%2Fexodus.desync.com%3A6969","seeders":20,"leechers":1,"uploader":"jatt13","files":1,"time":1414825779,"description":"General\nUnique ID                      : 205973023417209508743967524516729127636 (0x9AF4F61B439E7999B6416490ACDB02D4)\nComplete name                  : H:Super Nani 2014 Hindi DVDScr RIP GOPI SAHI PDR.mkv\nFormat                         : Matroska\nFormat version                 : Version 4 / Version 2\nFile size                      : 689 MiB\nDuration                       : 2h 9mn\nOverall bit rate               : 745 Kbps\nMovie name                     : GOPI SAHI\nEncoded date                   : UTC 2014-11-01 19:19:46\nWriting application            : mkvmerge v6.5.0 ('Isn't she lovely') built on Oct 20 2013 12:50:05\nWriting library                : libebml v1.3.0 + libmatroska v1.4.1\n\nVideo\nID                             : 1\nFormat                         : MPEG-4 Visual\nFormat profile                 : Advanced Simple@L5\nFormat settings, BVOP          : Yes\nFormat settings, QPel          : No\nFormat settings, GMC           : No warppoints\nFormat settings, Matrix        : Default (H.263)\nCodec ID                       : V_MS/VFW/FOURCC / XVID\nCodec ID/Hint                  : XviD\nDuration                       : 2h 9mn\nBit rate                       : 602 Kbps\nWidth                          : 640 pixels\nHeight                         : 272 pixels\nDisplay aspect ratio           : 2.35:1\nFrame rate mode                : Constant\nFrame rate                     : 25.000 fps\nColor space                    : YUV\nChroma subsampling             : 4:2:0\nBit depth                      : 8 bits\nScan type                      : Progressive\nCompression mode               : Lossy\nBits/(Pixel*Frame)             : 0.138\nStream size                    : 557 MiB (81%)\nTitle                          : GOPI SAHI\nWriting library                : XviD 1.2.1 (UTC 2008-12-04)\nLanguage                       : Hindi\nDefault                        : Yes\nForced                         : No\n\nAudio\nID                             : 2\nFormat                         : MPEG Audio\nFormat version                 : Version 1\nFormat profile                 : Layer 3\nMode                           : Joint stereo\nMode extension                 : MS Stereo\nCodec ID                       : A_MPEG/L3\nCodec ID/Hint                  : MP3\nDuration                       : 2h 9mn\nBit rate mode                  : Constant\nBit rate                       : 128 Kbps\nChannel(s)                     : 2 channels\nSampling rate                  : 48.0 KHz\nCompression mode               : Lossy\nStream size                    : 119 MiB (17%)\nTitle                          : GOPI SAHI\nWriting library                : LAME3.99r\nEncoding settings              : -m j -V 4 -q 2 -lowpass 17 -b 128\nLanguage                       : Hindi\nDefault                        : Yes\nForced                         : No\n\nText\nID                             : 3\nFormat                         : UTF-8\nCodec ID                       : S_TEXT/UTF8\nCodec ID/Info                  : UTF-8 Plain Text\nDefault                        : Yes\nForced                         : No &lt;a href=&quot;\nhttp://imgchicken.com/images/85605849041650415472.jpg&quot; rel=&quot;nofollow&quot; target=&quot;_NEW&quot;&gt;\nhttp://imgchicken.com/images/85605849041650415472.jpg&lt;/a&gt; &lt;a href=&quot;\nhttp://imgchicken.com/images/42578677386572201407.jpg&quot; rel=&quot;nofollow&quot; target=&quot;_NEW&quot;&gt;\nhttp://imgchicken.com/images/42578677386572201407.jpg&lt;/a&gt; &lt;a href=&quot;\nhttp://imgchicken.com/images/02143356052623572655.jpg&quot; rel=&quot;nofollow&quot; target=&quot;_NEW&quot;&gt;\nhttp://imgchicken.com/images/02143356052623572655.jpg&lt;/a&gt; &lt;a href=&quot;\nhttp://imgchicken.com/images/41938667800750313831.jpg&quot; rel=&quot;nofollow&quot; target=&quot;_NEW&quot;&gt;\nhttp://imgchicken.com/images/41938667800750313831.jpg&lt;/a&gt;","torrent":{"xt":"urn:btih:13adce99de79921401f4d1c7954f4607f286c1fb","amp;dn":"Super+Nani+2014+Hindi+DVDScr+RIP+GOPI+SAHI+PDR","amp;tr":["udp%3A%2F%2Ftracker.openbittorrent.com%3A80","udp%3A%2F%2Fopen.demonii.com%3A1337","udp%3A%2F%2Ftracker.coppersurfer.tk%3A6969","udp%3A%2F%2Fexodus.desync.com%3A6969"],"infoHash":"13adce99de79921401f4d1c7954f4607f286c1fb","infoHashBuffer":{"type":"Buffer","data":[19,173,206,153,222,121,146,20,1,244,209,199,149,79,70,7,242,134,193,251]},"announce":[],"urlList":[]}}